<svg xmlns="http://www.w3.org/2000/svg" xmlns:xlink="http://www.w3.org/1999/xlink" viewBox="0 0 500 500"><path d="M93.142 406.083s-53.782-.416-66.051 7.534c-12.269 7.95 19.96 17.509 55.169 28.445 35.209 10.936 42.743 28.391 79.525 29.286 36.782.894 85.551 0 144.732 0s125.425 4.472 141.172-5.366c15.747-9.838 45.068-14.172 38.226-26.762-6.842-12.59-4.645-20.906-84.91-25.244-80.266-4.337-307.863-7.893-307.863-7.893z" fill="#ced4dd"/><defs><path id="a" d="M0 0h500v500H0z"/></defs><clipPath id="b"><use xlink:href="#a" overflow="visible"/></clipPath><g clip-path="url(#b)" fill="#eaeaea"><path d="M83.879 410.223H73.083a9.263 9.263 0 01-9.263-9.263V284.5a9.263 9.263 0 019.263-9.263h10.796a9.263 9.263 0 019.263 9.263v116.46a9.263 9.263 0 01-9.263 9.263zm137.266 0H210.35a9.263 9.263 0 01-9.263-9.263V284.5a9.263 9.263 0 019.263-9.263h10.796a9.263 9.263 0 019.263 9.263v116.46a9.264 9.264 0 01-9.264 9.263z"/><path d="M191.824 409.193h-89.42a9.263 9.263 0 01-9.263-9.263v-89.42a9.263 9.263 0 019.263-9.263h89.42a9.263 9.263 0 019.263 9.263v89.42a9.263 9.263 0 01-9.263 9.263z"/><path d="M191.824 313.843h-89.42a9.263 9.263 0 01-9.263-9.263v-78.94a9.263 9.263 0 019.263-9.263h89.42a9.263 9.263 0 019.263 9.263v78.941a9.263 9.263 0 01-9.263 9.262zm-116.275 96.38h4.887v7.276h-4.887zm137.755 0h4.887v7.276h-4.887zM79.256 160.072h-99.167l10-68.469h79.167z"/><path d="M25.09 159.042h2v249.122h-2zm-35.872 249.122h74.28v8.688h-74.28z"/></g><path d="M269.134 424.492s-17.376 7.385-32.579-4.344c-15.204-11.729-39.529-93.393-27.801-106.425 11.728-13.032 28.643 26.063 28.643 26.063s-16.533-72.977 0-79.493c16.533-6.516 23.049 53.43 23.049 53.43s17.365-91.222 36.918-82.968-4.773 82.099-4.773 82.099 26.932-48.651 42.57-37.357c15.638 11.294-33.882 76.018-33.882 76.018s35.185-40.398 49.955-25.629c14.769 14.769-61.683 86.878-82.1 98.606z" clip-path="url(#b)" fill="#fad2d5"/><g clip-path="url(#b)"><path d="M464.654 412.931c-1.242-3.006-2.236-6.129-3.186-9.236-2.431-7.951-4.292-16.081-5.634-24.285-4.051-24.764-3.012-50.201 4.533-74.206 6.141-19.539 12.383-39.046 18.651-58.545a21532.362 21532.362 0 0123.859-73.754c.967-2.972 2.141-5.951 2.924-8.979.035-.137.088-.271.132-.405h-2.893c.284 1.684.533 3.376.778 5.066a367.27 367.27 0 01.599 4.278l.06.448.008.058.125.943c.353 2.685.686 5.373 1.001 8.063a633.96 633.96 0 012.124 21.316 637.241 637.241 0 011.656 26.783c.409 10.118.568 20.247.432 30.372-.145 10.84-.627 21.679-1.541 32.482-.924 10.925-2.292 21.815-4.273 32.601-1.938 10.55-4.455 21.009-7.802 31.206-3.141 9.57-7.027 18.911-11.967 27.698-4.662 8.293-10.267 16.069-17.026 22.784a87.78 87.78 0 01-5.067 4.652c-1.474 1.251.657 3.364 2.121 2.121 7.313-6.206 13.523-13.628 18.722-21.672 5.474-8.47 9.821-17.634 13.385-27.057 3.767-9.96 6.633-20.249 8.875-30.653 2.34-10.856 4.001-21.855 5.188-32.895 1.175-10.916 1.871-21.881 2.202-32.854.314-10.434.297-20.878.006-31.312a622.148 622.148 0 00-1.432-28.112 643.213 643.213 0 00-2.088-22.904 571.85 571.85 0 00-2.028-16.404c-.345-2.484-.6-5.026-1.114-7.483-.022-.105-.035-.213-.053-.319-.263-1.561-2.474-1.285-2.893 0-2.506 7.683-5.003 15.368-7.498 23.054-5.762 17.747-11.504 35.5-17.221 53.262-6.392 19.857-12.758 39.723-19.035 59.618-1.788 5.668-3.611 11.318-4.951 17.114-1.513 6.545-2.555 13.199-3.178 19.888-1.132 12.148-.833 24.415.643 36.521 1.689 13.854 4.631 27.907 9.724 40.948.078.201.157.402.24.602.726 1.753 3.63.982 2.892-.803z" fill="#fad2d5"/></g><path d="M462.449 427.202s-22.682-55.108 25.96-116.414c48.642-61.305 46.089-69.046 46.089-69.046s5.577 164.564-72.049 185.46z" clip-path="url(#b)" fill="#e6a7ad"/><g clip-path="url(#b)"><path d="M265.831 418.383c-5.018-.306-10.034-1.009-14.984-1.864-9.597-1.657-19.361-4.01-28.124-8.365-5.013-2.492-9.584-5.84-13.531-9.812-3.161-3.181-5.996-7.074-6.488-11.661-.459-4.28.956-8.538 2.644-12.41.799-1.833 1.925-3.631 2.258-5.628.252-1.516.149-3.049-.247-4.533-.914-3.421-3.11-6.403-5.32-9.099-2.701-3.296-5.728-6.312-8.681-9.379-3.035-3.153-6.092-6.342-8.657-9.898-2.16-2.994-4.16-6.386-4.648-10.111-.305-2.332.12-4.748.56-7.034a43.258 43.258 0 012.378-8.058c1.621-4.002 3.977-7.624 5.892-11.48 1.729-3.482 2.93-7.205 2.873-11.131-.047-3.252-.655-6.51-1.181-9.711-1.332-8.106-2.962-16.389-2.28-24.64.288-3.488 1.094-7.107 3.139-10.011 1.824-2.591 4.982-4.457 7.956-4.854 5.859-.783 10.761 4.295 14.167 8.701 4.665 6.035 8.178 12.916 11.773 19.613 1.6 2.981 3.193 5.975 4.978 8.851 1.296 2.089 2.707 4.304 4.597 5.912.752.64 1.581 1.199 2.544 1.465 1.199.33 1.865.031 3.022-.008 2.991-.1 5.932.571 8.737 1.683 7.665 3.038 13.267 9.669 15.521 17.535 1.645 5.745 1.278 11.703 1.648 17.606.27 4.304.634 8.79 2.054 12.894.937 2.708 2.404 5.167 4.578 7.061 2.151 1.874 4.666 3.09 7.088 4.549.086.052.167.112.247.171-.033-.024-.261-.215-.061-.043.164.141.321.289.47.445.076.08.502.595.289.317.152.198.292.406.426.616.684 1.072 1.015 1.885 1.394 2.983.994 2.885 1.491 5.94 1.771 8.971.773 8.352.09 16.883-1.557 25.091-1.821 9.075-4.884 18.048-9.896 25.877-2.338 3.652-5.126 6.986-8.408 9.827-1.462 1.266.668 3.38 2.121 2.121 7.173-6.212 11.995-14.703 15.271-23.509 3.271-8.793 5.073-18.171 5.614-27.527.411-7.111.324-14.839-2.023-21.649-.729-2.115-1.733-4.371-3.512-5.816-2.076-1.687-4.942-2.708-6.869-4.339-5.585-4.725-5.797-13.351-6.12-20.298-.279-5.991-.147-11.912-2.109-17.666-1.482-4.347-3.876-8.368-7.135-11.618-4.961-4.947-12.107-8.388-19.206-8.291-.727.01-1.432.116-2.154.175.392-.032-.071-.002-.168-.01-.116-.009-.393-.062.062.022-.114-.021-.229-.041-.34-.076a11.038 11.038 0 01-.257-.085c-.312-.105.313.157.012.002a8.761 8.761 0 01-.525-.299c-.092-.056-.178-.121-.265-.183-.308-.217.246.206-.053-.042a10.302 10.302 0 01-.541-.483c-1.827-1.748-3.128-3.941-4.485-6.232-3.888-6.561-7.164-13.463-11.126-19.984-3.542-5.829-7.8-12.409-13.997-15.712-6.21-3.31-13.723-1.245-17.87 4.369-4.777 6.466-4.297 15.765-3.488 23.328.462 4.322 1.182 8.61 1.893 12.896.539 3.248 1.178 6.543 1.251 9.844.085 3.81-1.18 7.337-2.918 10.672-2.107 4.043-4.464 7.914-6.087 12.193a43.703 43.703 0 00-2.237 8.336c-.404 2.427-.726 4.832-.376 7.281.559 3.906 2.49 7.496 4.745 10.68 5.146 7.265 12.036 13.012 17.717 19.82 2.11 2.529 4.298 5.417 5 8.705.272 1.275.214 2.585-.266 3.868-.825 2.204-2.053 4.408-2.888 6.678-1.51 4.104-2.344 8.506-1.406 12.842 1.06 4.9 4.304 9.038 7.855 12.43 4.11 3.927 8.761 7.276 13.88 9.753 4.661 2.256 9.577 3.968 14.561 5.353 8.257 2.294 16.76 3.751 25.279 4.639 1.404.146 2.81.285 4.219.371 1.928.121 1.921-2.88 0-2.997z" fill="#e6a7ad"/></g><path d="M460.684 427.868H296.228a9.18 9.18 0 01-9.18-9.18V93.443c0-5.07 4.11-9.181 9.18-9.18h164.455a9.18 9.18 0 019.181 9.18v325.246a9.18 9.18 0 01-9.18 9.179z" fill="#404568"/><path d="M456.551 84.262h-5.843c10.58 0 19.156 8.576 19.156 19.156v305.294c0 10.58-8.577 19.156-19.156 19.156h5.843c10.58 0 19.156-8.577 19.156-19.156V103.418c.001-10.58-8.576-19.156-19.156-19.156z" fill="#1c1f33"/><path d="M454.749 421.788H302.163a8.458 8.458 0 01-8.458-8.458V98.942a8.458 8.458 0 018.458-8.458H454.75a8.458 8.458 0 018.458 8.458V413.33a8.459 8.459 0 01-8.459 8.458z" fill="#fff"/><path d="M355.685 97.355h34.095a9.197 9.197 0 006.779-2.982l3.565-3.889h-55.167l4.263 4.215a9.198 9.198 0 006.465 2.656z" fill="#404568"/><path d="M319.013 161.126h-11.661a3.012 3.012 0 010-6.023h11.661a3.012 3.012 0 110 6.023zm20.944 0h-11.661a3.012 3.012 0 110-6.023h11.661a3.012 3.012 0 110 6.023zm20.944 0H349.24a3.012 3.012 0 110-6.023h11.661a3.012 3.012 0 110 6.023zm20.944 0h-11.661a3.012 3.012 0 110-6.023h11.661a3.012 3.012 0 110 6.023zm20.944 0h-11.661a3.012 3.012 0 110-6.023h11.661a3.012 3.012 0 110 6.023zm20.944 0h-11.661a3.012 3.012 0 010-6.023h11.661a3.012 3.012 0 110 6.023zm20.944 0h-11.661a3.012 3.012 0 010-6.023h11.661a3.012 3.012 0 110 6.023z" fill="#c2cbda"/><circle cx="333.233" cy="176.678" r="4.046" fill="#dfe6ef"/><circle cx="355.071" cy="176.678" r="4.046" fill="#dfe6ef"/><path d="M418.828 107.639a6.907 6.907 0 11-13.814 0 6.907 6.907 0 0113.814 0z" fill="#dfe6ef"/><circle cx="376.015" cy="176.678" r="4.046" fill="#dfe6ef"/><path d="M401.005 176.678a4.046 4.046 0 11-8.092 0 4.046 4.046 0 018.092 0zm20.944 0a4.046 4.046 0 11-8.092 0 4.046 4.046 0 018.092 0z" fill="#dfe6ef"/><circle cx="438.847" cy="176.678" r="4.046" fill="#dfe6ef"/><path d="M337.279 200.523a4.046 4.046 0 11-8.092 0 4.046 4.046 0 018.092 0zm21.838 0a4.046 4.046 0 11-8.092 0 4.046 4.046 0 018.092 0zm20.944 0a4.046 4.046 0 11-8.092 0 4.046 4.046 0 018.092 0z" fill="#dfe6ef"/><path d="M401.005 200.523a4.046 4.046 0 11-8.092 0 4.046 4.046 0 018.092 0z" fill="#a0d0fc"/><path d="M421.949 200.523a4.046 4.046 0 11-8.092 0 4.046 4.046 0 018.092 0zm20.944 0a4.046 4.046 0 11-8.092 0 4.046 4.046 0 018.092 0z" fill="#dfe6ef"/><circle cx="333.233" cy="224.367" r="4.046" fill="#dfe6ef"/><circle cx="355.071" cy="224.367" r="4.046" fill="#dfe6ef"/><circle cx="376.015" cy="224.367" r="4.046" fill="#dfe6ef"/><path d="M401.005 224.367a4.046 4.046 0 11-8.092 0 4.046 4.046 0 018.092 0zm20.944 0a4.046 4.046 0 11-8.092 0 4.046 4.046 0 018.092 0z" fill="#dfe6ef"/><circle cx="438.847" cy="224.367" r="4.046" fill="#dfe6ef"/><path d="M337.279 252.257a4.046 4.046 0 11-8.092 0 4.046 4.046 0 018.092 0zm-20.05-51.734a4.046 4.046 0 11-8.092 0 4.046 4.046 0 018.092 0zm0 23.844a4.046 4.046 0 11-8.092 0 4.046 4.046 0 018.092 0zm0 27.89a4.046 4.046 0 11-8.092 0 4.046 4.046 0 018.092 0zm41.888 0a4.046 4.046 0 11-8.092 0 4.046 4.046 0 018.092 0zm20.944 0a4.046 4.046 0 11-8.092 0 4.046 4.046 0 018.092 0zm20.944 0a4.046 4.046 0 11-8.092 0 4.046 4.046 0 018.092 0zm20.944 0a4.046 4.046 0 11-8.092 0 4.046 4.046 0 018.092 0zm20.944 0a4.046 4.046 0 11-8.092 0 4.046 4.046 0 018.092 0z" fill="#dfe6ef"/><text transform="translate(304.34 143.98)" fill="#404568" font-family="Montserrat-SemiBold" font-size="12">JAN</text><path d="M323.275 286.881h-15.923a3.012 3.012 0 010-6.024h15.923a3.012 3.012 0 110 6.024zm118.586-175.579h-15.923a3.01 3.01 0 110-6.022h15.923a3.012 3.012 0 013.012 3.011 3.012 3.012 0 01-3.012 3.011zM333.232 283.37h111.633v1H333.232zm-9.957 26.129h-15.923a3.01 3.01 0 110-6.022h15.923a3.012 3.012 0 110 6.022zm9.957-3.512h111.633v1H333.232zm-9.957 89.568h-15.923a3.012 3.012 0 010-6.024h15.923a3.012 3.012 0 110 6.024zm9.957-3.511h111.633v1H333.232z" fill="#c2cbda"/><path d="M408.105 312.544h-38.112a3.011 3.011 0 01-3.011-3.012v-6.09a3.012 3.012 0 013.011-3.012h38.112a3.012 3.012 0 013.012 3.012v6.09a3.013 3.013 0 01-3.012 3.012zm15.07 43.956h-94.321a3.012 3.012 0 01-3.012-3.012v-10.957a3.011 3.011 0 013.012-3.011h94.321a3.012 3.012 0 013.012 3.011v10.957a3.012 3.012 0 01-3.012 3.012z" fill="#a0d0fc"/><g fill="#dfe6ef"><path d="M319.195 113.664h-10.813a2.833 2.833 0 01-2.83-2.83v-5.238c0-1.56 1.269-2.83 2.83-2.83h10.813a2.833 2.833 0 012.83 2.83v5.238c0 1.56-1.27 2.83-2.83 2.83zm-10.813-10.071a2.004 2.004 0 00-2.002 2.002v5.238c0 1.104.898 2.002 2.002 2.002h10.813a2.004 2.004 0 002.002-2.002v-5.238a2.004 2.004 0 00-2.002-2.002h-10.813z"/><path d="M313.775 108.693l-7.258-4.506.436-.704 6.85 4.253 7.17-3.893.394.728z"/></g><path d="M324.228 103.593a2.861 2.861 0 11-5.722 0 2.861 2.861 0 015.722 0z" fill="#a0d0fc"/><path d="M152.007 66.931s-20.633.434-25.629 20.633c-4.995 20.199-4.561 23.891-13.032 36.054-8.471 12.163-9.557 15.638-9.774 29.538-.217 13.9-5.213 19.113 3.258 27.366 8.47 8.253 26.063 13.249 56.253 7.819 30.19-5.43 29.538-30.407 29.321-41.267-.217-10.86-10.425-20.851-9.339-30.407 1.086-9.557 1.086-27.149-8.253-39.529-9.339-12.379-22.805-10.207-22.805-10.207z" fill="#313440"/><path d="M161.998 80.397s-3.35 11.511-14.815 14.552c0 0 3.087-2.606 2.218-7.276 0 0-4.778 10.751-16.289 9.882 0 0-1.52 14.769 5.43 23.24 6.95 8.471 10.643 9.072 16.072 7.903 5.43-1.169 11.946-10.509 14.335-18.545s2.389-11.077 2.389-11.077-6.733-3.475-9.34-18.679z" fill="#d2796f"/><path d="M158.99 126.281l-.003-.003c-1.47 1.246-2.958 2.115-4.373 2.42-4.751 1.023-8.172.691-13.609-5.082 2.553 15.073-1.704 17.813-1.704 17.813 3.367 15.964 14.335 20.09 14.335 20.09 5.321-6.299 8.796-21.502 8.796-21.502-5.212-8.145-3.442-13.736-3.442-13.736zm-26-23.895l-.019-.053s-1.162-1.195-3.117-.543c-1.955.651-2.28 4.344-.869 8.145 1.412 3.801 3.836 4.687 5.773 3.646-1.291-3.986-1.686-8.121-1.768-11.195zm40.211-.595c-.924-.308-1.664-.2-2.195-.004-.308 1.771-.902 4.479-2.057 8.365a33.444 33.444 0 01-1.038 2.948c.089.222.214.389.386.481 1.937 1.04 4.362.154 5.773-3.646 1.411-3.801 1.086-7.493-.869-8.144z" fill="#d2796f"/><path d="M141.645 135.413c4.798-.312 13.805-1.586 17.061-6.716.016-1.542.285-2.416.285-2.416l-.003-.003c-1.47 1.246-2.958 2.115-4.373 2.42-4.751 1.023-8.172.691-13.609-5.082.904 5.34.951 9.127.639 11.797zm-8.674-33.079c.322 1.921.52 3.789.797 5.652.119.934.289 1.855.441 2.785l.55 2.811c-1.127-1.607-1.694-3.54-1.98-5.454a18.588 18.588 0 01-.171-2.905c.023-.969.115-1.941.363-2.889zm38.035-.547c.066 1.001-.003 1.993-.125 2.975a24.567 24.567 0 01-.555 2.916c-.513 1.906-1.216 3.81-2.415 5.423.473-1.939.967-3.788 1.447-5.674.498-1.879.974-3.759 1.648-5.64z" fill="#313440"/><path d="M189.039 152.777c-5.05-3.909-26.606-12.76-26.606-12.76s-3.475 15.204-8.796 21.502c0 0-10.968-4.127-14.335-20.09 0 0-18.027 7.113-22.425 10.697-4.398 3.584-14.963 30.299-14.963 30.299s5.352 13.52 14.8 18.244l8.145-10.057s2.28 16.084 7.005 21.297c0 0 4.072.977 16.778 1.466s19.548-2.932 19.548-2.932 6.532-11.227 8.796-19.831l3.584 5.985s11.566-6.353 17.593-15.638c-.002-.001-4.074-24.273-9.124-28.182z" fill="#93b0f0"/><path d="M137.727 147.727c.826 1.49 1.699 2.935 2.574 4.37.892 1.426 1.806 2.83 2.79 4.182a48.01 48.01 0 003.163 3.878c1.159 1.2 2.38 2.339 3.743 3.371-1.558-.694-3.003-1.668-4.29-2.814-1.269-1.164-2.4-2.47-3.425-3.847-1.982-2.796-3.599-5.86-4.555-9.14zm26.715-3.746c.118 1.61-.126 3.234-.5 4.803-.374 1.575-.931 3.097-1.563 4.581a33.906 33.906 0 01-2.254 4.271c-.42.686-.89 1.34-1.344 2.001-.501.631-.979 1.275-1.506 1.882l2.169-4.265c.692-1.426 1.408-2.835 2.019-4.289a57.657 57.657 0 001.733-4.398c.488-1.497.977-3.005 1.246-4.586zm-39.584 46.63s-3.095-10.793-3.747-17.961l-4.398 28.018 8.145-10.057zm52.127 0s3.747-10.956 5.538-18.775c0 0-.489 20.362-1.955 24.76l-3.583-5.985z" fill="#313440"/><path fill="#fff" d="M232.861 156.4l18.124-2.896 5.003 31.314-18.123 2.896z"/><path d="M250.864 152.746l-18.123 2.897a.685.685 0 00-.441.257c-.015.016-.031.029-.045.047-.011.017-.018.034-.027.052a.686.686 0 00-.109.504 1630090.341 1630090.341 0 005.006 31.312c.064.4.458.686.859.622l18.123-2.897a.761.761 0 00.622-.859l-4.386-27.436-.62-3.876a.761.761 0 00-.859-.623zm4.265 31.432l-16.642 2.66-4.267-26.696-.501-3.136 16.642-2.66 4.267 26.696.501 3.136z" fill="#313440"/><path d="M250.39 170.078a5.973 5.973 0 11-11.797 1.885 5.973 5.973 0 0111.797-1.885z" fill="#a0d0fc"/><path d="M248.448 167.982c-.354-.256-.78-.138-1.047.167l-4.063 4.638-.02.022a2803.29 2803.29 0 01-1.73-1.707c-.288-.284-.719-.38-1.056-.104-.288.237-.394.77-.104 1.056l2.35 2.319c.365.361.845.355 1.187-.036l4.063-4.638.587-.67c.267-.305.139-.825-.167-1.047z" fill="#fff"/><path d="M137.727 212.693c-.611-.306-1.122-.766-1.559-1.278-.445-.51-.792-1.1-1.072-1.719-.268-.624-.461-1.286-.518-1.966a4.935 4.935 0 01.18-2.011c.224.648.369 1.258.584 1.849.201.59.412 1.168.671 1.728.481 1.14 1.08 2.212 1.714 3.397zm19.547.406c1.236-.723 2.295-1.486 3.128-2.473a8.877 8.877 0 001.115-1.589c.34-.572.589-1.197.915-1.852a4.942 4.942 0 01-.197 2.159c-.198.715-.602 1.365-1.079 1.938a5.392 5.392 0 01-1.763 1.344c-.661.318-1.39.511-2.119.473z" fill="#313440"/><path d="M205.98 335.057c-4.235-29.321-10.425-58.968-16.941-82.262-6.516-23.294-20.851-42.353-20.851-42.353s-6.842 3.421-19.548 2.932c-12.706-.489-16.778-1.466-16.778-1.466s-29.158 30.624-21.014 72.326c5.864 29.647 5.864 36.814 5.864 40.724 0 3.909-2.118 14.335 1.873 39.095 3.991 24.76 4.276 42.027 4.276 42.027s8.511 4.235 14.864 1.629c0 0 4.398-40.398 7.33-65.484 2.932-25.086 4.887-59.294 8.796-71.348 0 0 12.054 36.814 16.941 49.194 4.887 12.38 5.213 21.176 6.842 30.298 1.629 9.122 24.543 53.756 24.543 53.756s9.014 0 14.226-3.258c.002 0-6.188-36.489-10.423-65.81z" fill="#4b6cd8"/><path d="M163.798 211.937c.9-1.004 1.753-1.896 2.469-2.888.369-.486.663-1.01.949-1.55.282-.548.466-1.132.694-1.781a3.88 3.88 0 01.042 2.041 5.452 5.452 0 01-.876 1.877c-.417.55-.9 1.042-1.455 1.433-.551.392-1.155.715-1.823.868z" fill="#313440"/><path d="M102.709 184.216s-6.521 14.661-7.987 19.222c-1.466 4.561 3.421 25.9 4.887 32.742 1.466 6.842 4.072 16.29 7.982 16.452 3.909.163 8.308-2.606 8.308-2.606s1.792 6.353 3.258 6.027c1.466-.326 1.629-3.258 1.629-3.258s1.222 1.14 3.258-.326.489-6.353.489-6.353 1.955.652 3.339-.733c1.385-1.385.407-4.643.407-4.643s3.176 1.059 3.909-1.303c.733-2.362-5.376-7.33-7.819-8.715-2.443-1.385-11.019 5.376-11.019 5.376s.872-15.787 0-22.676c-.872-6.889-.872-7.704-.872-7.704l4.235-5.05s-6.995-2.28-14.004-16.452zm77.859 12.38s7.493 20.374 12.543 23.544c5.05 3.17 13.683-1.496 20.688-8.203 7.005-6.708 22.968-25.278 22.968-25.278l-1.249-13.086s3.258-2.715 3.91-4.887c0 0 4.995-2.932 4.995-4.018 0-1.086 0-2.498-6.299-.652s-7.167 1.955-7.928 4.995c-.76 3.041-2.715 7.707-2.715 7.707s-6.842 7.062-12.489 10.646c-5.647 3.584-9.882 4.127-12.814 6.19l-4.018-12.597c.001.001-5.537 8.797-17.592 15.639z" fill="#d2796f"/><path d="M120.786 252.795s-.407-3.91-2.199-7.493m5.945.814s-1.303-3.91-3.339-6.923m7.086 1.548s-1.548-3.91-6.027-6.19" fill="none" stroke="#313440" stroke-miterlimit="10"/><path fill="#313440" d="M198.161 180.958l-1.303 20.851 5.321-8.254zm31.116 14.281l6.242-21.666 1.248 13.086zm-109.591 34.465a8.419 8.419 0 002.976-.678c.48-.158.917-.43 1.371-.638.422-.281.872-.505 1.273-.811a18.371 18.371 0 004.228-4.288l.465-.601.41-.642.825-1.283c.494-.891.993-1.783 1.467-2.692.42-.934.901-1.846 1.313-2.791.412-.946.794-1.905 1.238-2.85-.228 1.012-.519 2.01-.779 3.022-.306.995-.696 1.965-1.063 2.945-.398.967-.894 1.894-1.355 2.837l-.827 1.345-.416.672-.476.634c-1.236 1.709-2.784 3.232-4.605 4.342-.448.286-.94.503-1.41.745-.506.172-.984.408-1.508.516-1.023.258-2.096.401-3.127.216zm41.172 20.485c.201-3.124.233-6.244.155-9.357-.1-3.112-.247-6.222-.583-9.315a123.17 123.17 0 00-1.258-9.247c-.498-3.077-1.222-6.109-1.898-9.17.521 1.474 1.045 2.955 1.488 4.46.414 1.512.838 3.025 1.164 4.561.725 3.058 1.166 6.176 1.498 9.299.313 3.127.437 6.273.354 9.413a85.73 85.73 0 01-.257 4.701c-.174 1.558-.339 3.12-.663 4.655zm7.33-39.747c.431 1.279.841 2.559 1.3 3.823.431 1.272.877 2.538 1.355 3.791.951 2.506 1.927 4.999 3.049 7.422 1.111 2.425 2.348 4.793 3.84 6.985.744 1.096 1.571 2.141 2.54 3.04.945.924 2.054 1.689 3.328 2.144-1.34-.235-2.566-.944-3.649-1.773-1.073-.859-1.996-1.883-2.839-2.955-1.689-2.155-2.98-4.57-4.128-7.023a62.731 62.731 0 01-2.866-7.592c-.794-2.584-1.477-5.2-1.93-7.862zm-15.876 7.781a1.917 1.917 0 11-3.833 0 1.917 1.917 0 013.833 0zm1.542 52.653s1.14-7.982 10.262-11.24c0 0-3.065 13.52-1.207 24.597 1.858 11.077 4.765 27.422 4.765 27.422l-13.82-40.779zm-37.955-20.85c-1.393 6.435-1.926 13.025-1.979 19.586-.024 6.563.449 13.139 1.688 19.578.611 3.213 1.378 6.423 2.019 9.655a239.598 239.598 0 011.803 9.723c1.094 6.503 1.71 13.114 1.784 19.711.023 3.289.129 6.584 0 9.894-.118 3.3-.331 6.58-.422 9.86-.206 6.559.127 13.121.856 19.647.341 3.266.817 6.517 1.329 9.765.504 3.254.903 6.534 1.208 9.813.574 6.564.868 13.149.862 19.731a224.204 224.204 0 00-1.349-19.681 168.7 168.7 0 00-1.344-9.762c-.558-3.244-1.081-6.501-1.47-9.776-.854-6.54-1.162-13.161-1.002-19.76.077-3.299.275-6.589.377-9.866.114-3.269-.009-6.557-.043-9.847-.044-6.568-.623-13.1-1.682-19.584a237.265 237.265 0 00-1.752-9.696c-.636-3.225-1.356-6.427-1.927-9.69-2.21-13.02-1.936-26.476 1.044-39.301z"/><path d="M162.328 275.119a963.774 963.774 0 0110.961 32.293c1.733 5.417 3.394 10.853 4.791 16.388.701 2.791 1.076 5.621 1.523 8.422.436 2.806.9 5.599 1.481 8.367 1.13 5.544 2.706 10.994 4.497 16.374 1.764 5.394 3.799 10.684 5.954 15.936 2.157 5.25 4.454 10.445 6.823 15.608 2.341 5.176 4.791 10.303 7.277 15.413-5.339-10.035-10.306-20.273-14.809-30.723-2.271-5.215-4.294-10.55-6.108-15.945-1.825-5.391-3.446-10.87-4.612-16.461-.572-2.796-1.024-5.614-1.445-8.425-.433-2.811-.792-5.627-1.464-8.355-1.341-5.497-3.023-10.93-4.639-16.372a1181.259 1181.259 0 00-5.066-16.273l-5.164-16.247z" fill="#313440"/><path d="M122.863 406.08s.529 9.611-1.099 14.172c-1.629 4.561-11.403 18.082-11.403 18.082s.489 4.724 7.819 2.28c7.33-2.443 9.122-5.538 13.52-8.633 4.398-3.095 5.213-4.887 5.213-4.887s-.489-6.353 0-11.566c.489-5.213.814-7.819.814-7.819-6.353 2.606-14.864-1.629-14.864-1.629z" fill="#d2796f"/><path d="M136.912 427.093s-.814 1.792-5.213 4.887c-4.398 3.095-6.19 6.19-13.52 8.633-7.33 2.443-7.819-2.28-7.819-2.28s-4.724 3.909-7.493 6.516c-2.769 2.606-1.629 5.701 0 6.353 1.629.652 13.255.815 16.483 0 3.227-.814 9.255-7.819 14.304-11.728 5.05-3.91 5.05-5.05 5.05-7.005s-.42-7.096-1.792-5.376zm-14.049-21.013s5.647 7.57 13.921 11.237l.943-9.608s-5.946 2.606-14.864-1.629zm10.71 18.081c.512-.692.798-1.241.957-1.848.078-.304.121-.625.158-.977.033-.355.039-.728.106-1.166a2.3 2.3 0 01.669 1.075c.131.414.132.874.033 1.322-.235.89-1.038 1.625-1.923 1.594z" fill="#313440"/><path d="M202.179 404.125s3.87 7.276 3.455 16.507c0 0 8.925 4.344 16.852 6.407 7.928 2.063 12.38 4.995 16.615 5.104 4.235.109 6.516-.326 7.059-1.52.543-1.195-2.063-2.823-7.276-5.756-5.213-2.932-12.054-7.819-15.529-11.729-3.475-3.909-6.95-12.271-6.95-12.271s-3.8 2.823-14.226 3.258z" fill="#d2796f"/><path d="M254.197 434.315c-1.195-2.606-10.307-6.473-10.308-6.473 1.794 1.202 2.595 2.07 2.272 2.781-.543 1.195-2.823 1.629-7.059 1.52-4.235-.109-8.688-3.041-16.615-5.104-7.928-2.063-16.852-6.407-16.852-6.407-1.215 6.407 0 10.86 0 10.86s.78 2.823 9.142 2.932c8.362.109 12.814 3.041 24.652 6.19 11.837 3.149 14.769 0 14.769 0s1.194-3.693-.001-6.299zm-48.759-18.896s4.234-6.516 10.967-14.552c0 0-4.452 2.715-14.226 3.258 0 0 2.717 4.995 3.259 11.294zm2.823-1.52c-.137 1.105-.275 2.102.003 2.899.127.395.355.751.711 1.059.153.18.379.292.572.465.212.148.442.276.669.463a4.167 4.167 0 01-.85-.006c-.271-.081-.574-.108-.83-.276-.554-.241-1.012-.78-1.219-1.385a2.89 2.89 0 01.025-1.802c.183-.551.481-1.048.919-1.417z" fill="#313440"/><path d="M252.771 159.925s-.61 1.893-1.262 5.558-.774 5.648.631 5.756c0 0-.398 3.41.631 4.018 1.029.608 1.691 0 1.691 0s-1.65 3.747-.347 4.968c1.303 1.222 1.872 0 1.872 0s-.732 1.385-.324 2.443c.407 1.059 1.792-.326 2.688-2.036.896-1.71 1.547-4.235.57-4.968 0 0 .651-3.503-1.222-4.643 0 0 1.041-4.479-1.174-5.538 0 0 .052-3.176-1.301-5.213-1.353-2.036-2.743-2.156-2.743-2.156l.29 1.811z" fill="#d2796f"/><path d="M252.14 171.239c.726-1.164 1.507-2.228 2.251-3.32a49.195 49.195 0 002.135-3.366c-.124 1.382-.758 2.663-1.517 3.79-.788 1.115-1.715 2.139-2.869 2.896zm2.322 4.018c.479-.809 1.027-1.485 1.566-2.172.552-.682 1.069-1.342 1.671-2.064-.051.953-.523 1.811-1.085 2.531-.586.708-1.279 1.335-2.152 1.705zm1.526 5.056c.346-.885.814-1.643 1.294-2.396.499-.744.995-1.465 1.639-2.165-.105.951-.518 1.804-1.012 2.576-.514.761-1.116 1.47-1.921 1.985z" fill="#313440"/></svg>