<?xml version="1.0" encoding="UTF-8"?><svg id="Layer_1" xmlns="http://www.w3.org/2000/svg" xmlns:xlink="http://www.w3.org/1999/xlink" viewBox="0 0 320 94"><defs><style>.cls-1{fill:url(#linear-gradient-2);}.cls-2{fill:#2e3192;font-family:Montserrat-Regular, Montserrat;font-size:6.14px;}.cls-3{fill:url(#linear-gradient-6);}.cls-4{fill:url(#linear-gradient-11);}.cls-5{letter-spacing:-.02em;}.cls-6{fill:url(#linear-gradient-10);}.cls-7{fill:url(#linear-gradient-5);}.cls-8{fill:url(#linear-gradient-7);}.cls-9{fill:#1283b2;}.cls-10{fill:url(#linear-gradient-9);}.cls-11{fill:url(#linear-gradient-3);}.cls-12{fill:url(#linear-gradient);}.cls-13{letter-spacing:0em;}.cls-14{fill:url(#linear-gradient-4);}.cls-15{fill:url(#linear-gradient-8);}.cls-16{fill:url(#linear-gradient-12);}.cls-17{fill:url(#linear-gradient-13);}.cls-18{letter-spacing:-.02em;}.cls-19{letter-spacing:.01em;}</style><linearGradient id="linear-gradient" x1="111.03" y1="31.14" x2="125.19" y2="31.14" gradientUnits="userSpaceOnUse"><stop offset="0" stop-color="#6fc7b2"/><stop offset="1" stop-color="#48c3d2"/></linearGradient><linearGradient id="linear-gradient-2" x1="53.29" y1="48.8" x2="69.48" y2="48.8" gradientUnits="userSpaceOnUse"><stop offset="0" stop-color="#5fcae7"/><stop offset="1" stop-color="#457dc0"/></linearGradient><linearGradient id="linear-gradient-3" x1="73.69" y1="48.8" x2="85.48" y2="48.8" xlink:href="#linear-gradient-2"/><linearGradient id="linear-gradient-4" x1="87.97" y1="48.82" x2="106.55" y2="48.82" xlink:href="#linear-gradient-2"/><linearGradient id="linear-gradient-5" x1="111.07" y1="41.3" x2="125.2" y2="41.3" xlink:href="#linear-gradient-2"/><linearGradient id="linear-gradient-6" x1="111.07" y1="49.17" x2="125.19" y2="49.17" xlink:href="#linear-gradient-2"/><linearGradient id="linear-gradient-7" x1="130.07" y1="48.8" x2="145.66" y2="48.8" xlink:href="#linear-gradient-2"/><linearGradient id="linear-gradient-8" x1="148.83" y1="48.81" x2="163.68" y2="48.81" xlink:href="#linear-gradient"/><linearGradient id="linear-gradient-9" x1="166.86" y1="48.8" x2="183.04" y2="48.8" xlink:href="#linear-gradient"/><linearGradient id="linear-gradient-10" x1="187.54" y1="48.8" x2="202.22" y2="48.8" xlink:href="#linear-gradient"/><linearGradient id="linear-gradient-11" x1="205.77" y1="48.8" x2="207.17" y2="48.8" xlink:href="#linear-gradient"/><linearGradient id="linear-gradient-12" x1="212.37" y1="48.8" x2="226.45" y2="48.8" xlink:href="#linear-gradient"/><linearGradient id="linear-gradient-13" x1="229.32" y1="48.81" x2="244.06" y2="48.81" xlink:href="#linear-gradient"/></defs><path class="cls-12" d="M125.18,29.64v8.64c-.93,.46-1.94,.83-3.03,1.1-1.25,.3-2.61,.47-4.07,.47-1.12,0-2.17-.1-3.17-.28v-7.69c0-.12-.05-.24-.13-.32-.08-.08-.2-.13-.32-.13-.25,0-.45,.2-.45,.45v7.5c-1.08-.26-2.07-.63-2.99-1.09v-9.51c.71-5.74,6.16-6.33,6.16-6.33,8.35-.17,7.99,7.2,7.99,7.2Z"/><g><path class="cls-1" d="M69.48,55.46c-1.84,1.84-4.29,2.77-6.71,2.77-6.21,0-9.45-4.34-9.47-9.32-.05-4.92,3.16-9.53,9.47-9.53,2.42,0,4.87,.92,6.71,2.76l-.98,.84c-1.58-1.58-3.66-2.34-5.74-2.34-5.37,0-8.13,3.79-8.11,8.21,.05,4.32,2.79,8.05,8.11,8.05,2.08,0,4.18-.79,5.76-2.34l.95,.89Z"/><path class="cls-11" d="M75.11,39.59v17.08h10.37v1.34h-11.79v-18.42h1.42Z"/><path class="cls-14" d="M106.55,48.83c-.03,4.84-3.11,9.5-9.29,9.5s-9.29-4.69-9.29-9.55,3.08-9.47,9.29-9.47,9.31,4.55,9.29,9.53Zm-17.18-.03c.03,4.16,2.66,8.21,7.9,8.21s7.92-4.05,7.92-8.21-2.63-8.18-7.92-8.18-7.92,3.84-7.9,8.18Z"/><g><path class="cls-7" d="M125.19,40.08c-.45,.19-.91,.33-1.4,.48-.52,.16-1.05,.29-1.61,.4-1.26,.26-2.61,.39-4.05,.39s-2.78-.14-4.04-.39c-.56-.11-1.09-.25-1.62-.4-.49-.14-.95-.3-1.4-.48v1.2c.45,.18,.91,.34,1.4,.48,.53,.15,1.06,.29,1.62,.4,1.26,.25,2.61,.38,4.04,.38s2.79-.13,4.05-.38c.56-.11,1.09-.25,1.61-.4,.48-.14,.94-.29,1.4-.47h.01v-1.2h-.01Z"/><path class="cls-3" d="M123.79,40.55v10.48c0,7.9-11.32,7.93-11.32,0v-10.48c-.49-.14-.95-.3-1.4-.48v10.96c0,9.66,14.11,9.63,14.11,0v-10.95c-.45,.19-.91,.33-1.4,.48Z"/></g><path class="cls-8" d="M145.65,48.59c.1,4.68-2.9,9.42-9.34,9.42h-6.24v-18.42h6.24c6.24,0,9.24,4.48,9.34,9Zm-14.16-7.66v15.71h4.82c5.47,0,8-4.1,7.92-8.05-.08-3.84-2.61-7.66-7.92-7.66h-4.82Z"/></g><g><path class="cls-15" d="M161.97,43.14c-1.34-2.16-3.5-2.47-5.58-2.5-2.16,0-5.58,.79-5.58,3.74,0,2.34,2.53,2.9,5.63,3.48,3.55,.68,7.24,1.31,7.24,5.29-.03,4.16-4.21,5.16-7.29,5.16-2.87,0-6.13-1.19-7.55-4l1.26-.63c1.13,2.24,4.03,3.34,6.29,3.34s5.87-.63,5.87-3.89c.03-2.77-3.03-3.37-6.05-3.95-3.37-.66-6.81-1.34-6.81-4.74-.08-3.9,3.97-5.11,7-5.11,2.63,0,4.92,.42,6.74,3.14l-1.15,.68Z"/><path class="cls-10" d="M183.04,55.46c-1.84,1.84-4.29,2.77-6.71,2.77-6.21,0-9.45-4.34-9.47-9.32-.05-4.92,3.16-9.53,9.47-9.53,2.42,0,4.87,.92,6.71,2.76l-.97,.84c-1.58-1.58-3.66-2.34-5.74-2.34-5.37,0-8.13,3.79-8.1,8.21,.05,4.32,2.79,8.05,8.1,8.05,2.08,0,4.18-.79,5.76-2.34l.95,.89Z"/><path class="cls-6" d="M202.22,58.01h-1.87l-6.37-6.97h-5.03v6.97h-1.42v-18.42h8.11c4,0,6.03,2.87,6.05,5.74,.02,3-1.95,5.63-5.97,5.63l6.5,7.05Zm-13.26-8.32h6.52c3.21,0,4.63-1.81,4.66-4.39,.03-2.16-1.45-4.39-4.5-4.39h-6.68v8.79Z"/><path class="cls-4" d="M205.77,58.01v-18.42h1.39v18.42h-1.39Z"/><path class="cls-16" d="M213.8,51.64v6.37h-1.42v-18.42h8.08c8,0,8,12.05,0,12.05h-6.66Zm0-10.74v9.44h6.66c6.13,0,6.13-9.44,0-9.44h-6.66Z"/><path class="cls-17" d="M235.98,40.88h-6.66v-1.27h14.74v1.27h-6.66v17.13h-1.42v-17.13Z"/></g><text class="cls-2" transform="translate(111.88 67.9)"><tspan class="cls-5" x="0" y="0">F</tspan><tspan x="3.78" y="0">or Sma</tspan><tspan class="cls-19" x="25.62" y="0">r</tspan><tspan x="28.18" y="0">t | Efficient | In</tspan><tspan class="cls-18" x="72.64" y="0">t</tspan><tspan class="cls-13" x="75.01" y="0">elligent | Solutions</tspan></text><g><path class="cls-9" d="M248.87,39.4c-2.66,0-4.82-2.16-4.82-4.82s2.16-4.82,4.82-4.82,4.82,2.16,4.82,4.82-2.16,4.82-4.82,4.82Zm0-9.18c-2.41,0-4.36,1.96-4.36,4.36s1.96,4.36,4.36,4.36,4.36-1.96,4.36-4.36-1.96-4.36-4.36-4.36Z"/><g><path class="cls-9" d="M246.93,33.51h-.98v-.35h2.36v.35h-.98v2.5h-.41v-2.5Z"/><path class="cls-9" d="M251.4,36.01v-2.08s-1.03,1.73-1.03,1.73h-.19l-1.03-1.72v2.06h-.39v-2.85h.33l1.19,2,1.17-2h.33v2.85s-.39,0-.39,0Z"/></g></g></svg>